<svg xmlns="http://www.w3.org/2000/svg" viewBox="0 0 12.17 17.06"><defs><style>.cls-1{fill:#d7dce1;}</style></defs><title>face</title><g id="Capa_2" data-name="Capa 2"><g id="Diseño"><path class="cls-1" d="M6.09,7.83c1.78,0,3.22-1.75,3.22-3.92S8.84,0,6.09,0,2.87,1.75,2.87,3.91,4.31,7.83,6.09,7.83Z"/><path class="cls-1" d="M12.17,14.7c-.06-3.77-.55-4.84-4.32-5.52a2.26,2.26,0,0,1-1.76.67,2.27,2.27,0,0,1-1.77-.67C.6,9.85.08,10.91,0,14.58a1.76,1.76,0,0,1,0,.27v.4s.9,1.81,6.09,1.81,6.08-1.81,6.08-1.81V14.7Z"/></g></g></svg>