<svg xmlns="http://www.w3.org/2000/svg" viewBox="0 0 25.25 25.25"><defs><style>.cls-1{fill:#fff;}</style></defs><title>mail</title><g id="Capa_2" data-name="Capa 2"><g id="Diseño"><path class="cls-1" d="M12.63,0A12.63,12.63,0,1,0,25.25,12.63,12.62,12.62,0,0,0,12.63,0Zm0,4.43L20.1,9.09H5.16Zm7.56,12.11h0a1.35,1.35,0,0,1-1.35,1.35H6.42a1.36,1.36,0,0,1-1.36-1.35V9.39a1.79,1.79,0,0,1,0-.23l7.14,4.45,0,0h0a.44.44,0,0,0,.16.06h0l.18,0h0l.17,0h0a.52.52,0,0,0,.16-.06h0s0,0,0,0l7.14-4.45a.9.9,0,0,1,0,.23v7.15Z"/></g></g></svg>