<svg xmlns="http://www.w3.org/2000/svg" viewBox="0 0 25.25 25.25"><defs><style>.cls-1{fill:#fff;}</style></defs><title>tel</title><g id="Capa_2" data-name="Capa 2"><g id="Diseño"><path class="cls-1" d="M12.63,18a1,1,0,1,1-1,1A1,1,0,0,1,12.63,18Z"/><path class="cls-1" d="M15.38,5.75H9.87a.54.54,0,0,0-.55.53v10.4a.54.54,0,0,0,.55.53h5.51a.54.54,0,0,0,.56-.53V6.28A.54.54,0,0,0,15.38,5.75Z"/><path class="cls-1" d="M12.63,0A12.63,12.63,0,1,0,25.25,12.63,12.62,12.62,0,0,0,12.63,0Zm4.91,18.86a1.74,1.74,0,0,1-1.75,1.74H9.46a1.75,1.75,0,0,1-1.75-1.74V6.34A1.76,1.76,0,0,1,9.46,4.59h6.33a1.75,1.75,0,0,1,1.75,1.75Z"/></g></g></svg>