<svg xmlns="http://www.w3.org/2000/svg" viewBox="0 0 25.79 25.79"><defs><style>.cls-1{fill:#fff;}</style></defs><title>tel2</title><g id="Capa_2" data-name="Capa 2"><g id="Diseño"><path class="cls-1" d="M13.11,0a12.69,12.69,0,0,0-11,19L0,25.22a.42.42,0,0,0,.1.43.41.41,0,0,0,.31.14l.11,0L7.36,24A12.68,12.68,0,1,0,13.11,0ZM21,18.44l-.75.75a4.41,4.41,0,0,1-3.17,1.44h0c-1.54,0-3.2-.88-4.94-2.62L7.78,13.63a8.65,8.65,0,0,1-2.51-4A4.27,4.27,0,0,1,6.6,5.52l.75-.75a1.63,1.63,0,0,1,1.88-.29A8.77,8.77,0,0,1,11.69,7.3a1.59,1.59,0,0,1,.21,1.21,1.13,1.13,0,0,1-.51.67,9.85,9.85,0,0,0-.82.74,1.17,1.17,0,0,0,.17,1.71l3.42,3.42a1.16,1.16,0,0,0,1.71.17c.09-.07.45-.48.74-.82a1.13,1.13,0,0,1,1-.56,1.83,1.83,0,0,1,.87.25,9,9,0,0,1,2.81,2.46A1.61,1.61,0,0,1,21,18.44Z"/></g></g></svg>